<?xml version="1.0" encoding="UTF-8" standalone="no"?><!DOCTYPE svg PUBLIC "-//W3C//DTD SVG 1.1//EN" "http://www.w3.org/Graphics/SVG/1.1/DTD/svg11.dtd"><svg width="100%" height="100%" viewBox="0 0 754 741" version="1.1" xmlns="http://www.w3.org/2000/svg" xmlns:xlink="http://www.w3.org/1999/xlink" xml:space="preserve" xmlns:serif="http://www.serif.com/" style="fill-rule:evenodd;clip-rule:evenodd;stroke-linejoin:round;stroke-miterlimit:2;"><g><g><clipPath id="_clip1"><rect x="1.975" y="-5.926" width="757.53" height="740.953"/></clipPath><g clip-path="url(#_clip1)"><g><clipPath id="_clip2"><rect x="7.901" y="7.901" width="753.58" height="740.953"/></clipPath><g clip-path="url(#_clip2)"><path d="M425.971,3.169c-32.647,-4.225 -65.716,-4.225 -98.362,0c3.249,24.268 3.019,48.504 -0.69,72.708c-19.363,3.169 -38.369,8.176 -56.75,14.951c-15.52,-19.137 -28.044,-40.013 -37.57,-62.627c-30.422,12.39 -59.061,28.647 -85.184,48.357c15.154,19.419 27.28,40.52 36.376,63.305c-15.158,12.264 -29.071,25.944 -41.544,40.848c-23.173,-8.943 -44.635,-20.866 -64.385,-35.766c-20.045,25.686 -36.58,53.844 -49.181,83.756c23,9.367 44.231,21.681 63.695,36.941c-6.891,18.073 -11.983,36.76 -15.206,55.8c-24.616,3.646 -49.265,3.872 -73.947,0.677c-4.297,32.1 -4.297,64.615 0,96.714c24.682,-3.195 49.331,-2.969 73.947,0.678c3.223,19.039 8.315,37.727 15.206,55.8c-19.464,15.26 -40.695,27.574 -63.695,36.941c12.601,29.911 29.136,58.07 49.181,83.756c19.75,-14.901 41.212,-26.823 64.385,-35.767c12.473,14.904 26.386,28.585 41.544,40.849c-9.096,22.784 -21.222,43.886 -36.376,63.305c26.123,19.709 54.762,35.967 85.184,48.357c9.526,-22.614 22.05,-43.49 37.57,-62.628c18.381,6.776 37.387,11.783 56.75,14.952c3.709,24.204 3.939,48.44 0.69,72.707c32.646,4.226 65.715,4.226 98.362,0c-3.25,-24.267 -3.02,-48.503 0.689,-72.707c19.364,-3.169 38.37,-8.176 56.751,-14.952c15.52,19.138 28.043,40.014 37.57,62.628c30.422,-12.39 59.06,-28.648 85.184,-48.357c-15.155,-19.419 -27.28,-40.521 -36.376,-63.305c15.158,-12.264 29.071,-25.945 41.544,-40.849c23.173,8.944 44.634,20.866 64.384,35.767c20.046,-25.686 36.58,-53.845 49.181,-83.756c-22.999,-9.367 -44.231,-21.681 -63.694,-36.941c6.89,-18.073 11.983,-36.761 15.206,-55.8c24.616,-3.647 49.265,-3.873 73.946,-0.678c4.298,-32.099 4.298,-64.614 0,-96.714c-24.681,3.195 -49.33,2.969 -73.946,-0.677c-3.223,-19.04 -8.316,-37.727 -15.206,-55.8c19.463,-15.26 40.695,-27.574 63.694,-36.941c-12.601,-29.912 -29.135,-58.07 -49.181,-83.756c-19.75,14.9 -41.211,26.823 -64.384,35.766c-12.473,-14.904 -26.386,-28.584 -41.544,-40.848c9.096,-22.785 21.221,-43.886 36.376,-63.305c-26.124,-19.71 -54.762,-35.967 -85.184,-48.357c-9.527,22.614 -22.05,43.49 -37.57,62.627c-18.381,-6.775 -37.387,-11.782 -56.751,-14.951c-3.709,-24.204 -3.939,-48.44 -0.689,-72.708Zm-49.181,173.427c108.829,0 197.184,86.875 197.184,193.88c0,107.006 -88.355,193.881 -197.184,193.881c-108.829,-0 -197.185,-86.875 -197.185,-193.881c0,-107.005 88.356,-193.88 197.185,-193.88Z"/><path d="M378.882,211.16c88.348,0 160.075,71.727 160.075,160.076c0,88.348 -71.727,160.075 -160.075,160.075c-88.348,-0 -160.075,-71.727 -160.075,-160.075c-0,-88.349 71.727,-160.076 160.075,-160.076Zm-0,80.038c44.174,-0 80.038,35.864 80.038,80.038c-0,44.174 -35.864,80.037 -80.038,80.037c-44.174,0 -80.038,-35.863 -80.038,-80.037c0,-44.174 35.864,-80.038 80.038,-80.038Z"/></g></g></g></g></g></svg>